HIERARCHY
ROOT Hips
{
	OFFSET 0.00 0.00 0.00
	CHANNELS 6 Xposition Yposition Zposition Xrotation Yrotation Zrotation
	JOINT LeftUpLeg
	{
		OFFSET 3.64953 0.00000 0.00000
		CHANNELS 3 Xrotation Yrotation Zrotation
		JOINT LeftLeg
		{
			OFFSET 0.00000 -15.70580 0.00000
			CHANNELS 3 Xrotation Yrotation Zrotation
			JOINT LeftFoot
			{
				OFFSET 0.00000 -15.41867 0.00000
				CHANNELS 3 Xrotation Yrotation Zrotation
				JOINT LeftToeBase
				{
					OFFSET 0.00000 -1.53543 5.73033
					CHANNELS 3 Xrotation Yrotation Zrotation
					End Site
					{
						OFFSET 0.00000 0.00000 2.95275
					}
				}
			}
		}
	}
	JOINT RightUpLeg
	{
		OFFSET -3.64953 0.00000 0.00000
		CHANNELS 3 Xrotation Yrotation Zrotation
		JOINT RightLeg
		{
			OFFSET 0.00000 -15.70580 0.00000
			CHANNELS 3 Xrotation Yrotation Zrotation
			JOINT RightFoot
			{
				OFFSET 0.00000 -15.41867 0.00000
				CHANNELS 3 Xrotation Yrotation Zrotation
				JOINT RightToeBase
				{
					OFFSET 0.00000 -1.53543 5.73033
					CHANNELS 3 Xrotation Yrotation Zrotation
					End Site
					{
						OFFSET 0.00000 0.00000 2.95275
					}
				}
			}
		}
	}
	JOINT Spine
	{
		OFFSET 0.00000 0.03937 0.00000
		CHANNELS 3 Xrotation Yrotation Zrotation
		JOINT Spine1
		{
			OFFSET 0.00000 10.24829 0.00000
			CHANNELS 3 Xrotation Yrotation Zrotation
			JOINT Neck
			{
				OFFSET 0.00000 7.82687 0.00000
				CHANNELS 3 Xrotation Yrotation Zrotation
				JOINT Head
				{
					OFFSET 0.00000 6.90715 0.00000
					CHANNELS 3 Xrotation Yrotation Zrotation
					End Site
					{
						OFFSET 0.00000 4.52755 0.00000
					}
				}
			}
			JOINT LeftShoulder
			{
				OFFSET 0.00000 7.82687 0.00000
				CHANNELS 3 Xrotation Yrotation Zrotation
				JOINT LeftArm
				{
					OFFSET 6.71018 -0.00002 0.00000
					CHANNELS 3 Xrotation Yrotation Zrotation
					JOINT LeftForeArm
					{
						OFFSET 10.94419 -0.00004 0.00000
						CHANNELS 3 Xrotation Yrotation Zrotation
						JOINT LeftHand
						{
							OFFSET 8.52010 -0.00003 0.00000
							CHANNELS 3 Xrotation Yrotation Zrotation
							JOINT LeftHandThumb
							{
								OFFSET 0.00000 0.00000 0.00000
								CHANNELS 3 Xrotation Yrotation Zrotation
								End Site
								{
									OFFSET 0.00000 0.00000 3.93700
								}
							}
							JOINT L_Wrist_End
							{
								OFFSET 3.93700 -0.00001 0.00000
								CHANNELS 3 Xrotation Yrotation Zrotation
							}
						}
					}
				}
			}
			JOINT RightShoulder
			{
				OFFSET 0.00000 7.82687 0.00000
				CHANNELS 3 Xrotation Yrotation Zrotation
				JOINT RightArm
				{
					OFFSET -6.71018 -0.00002 0.00000
					CHANNELS 3 Xrotation Yrotation Zrotation
					JOINT RightForeArm
					{
						OFFSET -10.94419 -0.00004 0.00000
						CHANNELS 3 Xrotation Yrotation Zrotation
						JOINT RightHand
						{
							OFFSET -8.52010 -0.00003 0.00000
							CHANNELS 3 Xrotation Yrotation Zrotation
							JOINT RightHandThumb
							{
								OFFSET 0.00000 0.00000 0.00000
								CHANNELS 3 Xrotation Yrotation Zrotation
								End Site
								{
									OFFSET 0.00000 0.00000 3.93700
								}
							}
							JOINT R_Wrist_End
							{
								OFFSET -5.39369 -0.00002 0.00000
								CHANNELS 3 Xrotation Yrotation Zrotation
							}
						}
					}
				}
			}
		}
	}
}
MOTION
Frames: 14
Frame Time: 0.0333333
-2.6782 26.2862 55.1742 3.7279 -8.0583 -1.7067 -46.0948 -6.6524 7.087 75.3389 0 0 -33.7527 1.2021 -11.5992 -7.1509 0 0 -45.1195 -2.2189 2.5612 73.6926 0 0 -42.7892 -1.653 -8.7264 8.2228 0 0 2.0744 1.9443 -1.0771 15.4455 -1.3086 -2.6768 2.2028 2.5216 -6.5097 2.8749 -0.3684 5.6251 19.7738 8.5085 -4.1751 -36.9715 -48.3254 -74.8626 -0.0002 -37.3531 -0.0001 2.6381 -2.4297 -2.0407 0 0 0 0 0 0 12.9274 -16.4257 1.6462 -11.6641 37.1745 76.5638 -0.0001 32.0432 0 -21.4497 0.5585 3.2051 0 0 0 0 0 0
0 26.2862 0 3.7279 -8.0583 -1.7067 -46.0948 -6.6524 7.087 75.3389 0 0 -33.7527 1.2021 -11.5992 -7.1509 0 0 -45.1195 -2.2189 2.5612 73.6926 0 0 -42.7892 -1.653 -8.7264 8.2228 0 0 2.0744 1.9443 -1.0771 15.4455 -1.3086 -2.6768 2.2028 2.5216 -6.5097 2.8749 -0.3684 5.6251 19.7738 8.5085 -4.1751 -36.9715 -48.3254 -74.8626 -0.0002 -37.3531 -0.0001 2.6381 -2.4297 -2.0407 0 0 0 0 0 0 12.9274 -16.4257 1.6462 -11.6641 37.1745 76.5638 -0.0001 32.0432 0 -21.4497 0.5585 3.2051 0 0 0 0 0 0
0 26.0045 0 3.4755 -8.2857 -1.6105 -46.8713 -6.3587 7.2691 76.9327 0 0 -34.3002 0.9543 -11.5386 -6.9398 0 0 -45.9955 -2.0545 2.5804 75.3854 0 0 -43.4577 -1.602 -8.5961 8.5082 0 0 2.1399 1.9808 -1.1153 15.5262 -1.3096 -2.8238 2.1348 2.5719 -6.5404 2.8225 -0.2251 5.4653 19.8382 8.5652 -4.2767 -37.1326 -47.9855 -75.1291 -0.0002 -37.4329 -0.0001 3.4697 -2.5086 -0.1453 0 0 0 0 0 0 12.8659 -16.4237 1.6245 -10.6335 37.1537 75.8788 -0.0001 30.3192 0 -21.2681 0.272 3.6194 0 0 0 0 0 0
0 26.5802 0 4.0405 -7.8355 -1.7555 -45.3558 -6.9279 6.855 73.6905 0 0 -33.1141 1.4553 -11.3175 -7.3813 0 0 -44.29 -2.3651 2.4906 71.9437 0 0 -42.1716 -1.6284 -8.6447 8.2831 0 0 2.0175 1.9115 -1.053 15.2208 -1.3073 -2.5607 2.3997 2.3328 -6.4845 2.8308 -0.4847 5.7912 19.7063 8.396 -4.0008 -36.6768 -48.5714 -74.6095 -0.0002 -37.2861 -0.0001 1.6144 -2.368 -3.699 0 0 0 0 0 0 12.9242 -16.3502 1.6477 -12.4355 37.2027 77.0831 -0.0001 33.8194 0 -21.7372 0.4333 2.792 0 0 0 0 0 0
0 25.732 0 3.3359 -8.5785 -1.4664 -47.7296 -5.9666 7.4863 78.3954 0 0 -34.8049 0.7865 -11.6104 -6.8611 0 0 -46.9521 -1.8733 2.5856 76.9453 0 0 -43.971 -1.5413 -8.4602 8.4456 0 0 2.0663 2.0124 -1.1793 15.6599 -1.3293 -3.0023 2.0678 2.5788 -6.6576 2.6873 -0.0945 5.4458 20.0041 8.6967 -4.3961 -37.4309 -47.6188 -75.3882 -0.0002 -37.4991 -0.0001 4.0322 -2.6321 1.5812 0 0 0 0 0 0 12.8853 -16.3457 1.616 -9.7678 37.0985 75.1659 -0.0001 28.5307 0 -21.127 -0.2503 4.3129 0 0 0 0 0 0
0 26.8858 0 4.2076 -7.6051 -1.8723 -44.434 -7.1911 6.7205 71.9644 0 0 -32.4299 1.6261 -10.9881 -7.6448 0 0 -43.253 -2.5678 2.4702 70.0771 0 0 -41.5121 -1.5731 -8.6429 8.4168 0 0 1.9922 1.875 -1.0172 15.2616 -1.2941 -2.3696 2.3822 2.3395 -6.4944 2.8756 -0.6995 6.0224 19.5483 8.3459 -3.8727 -36.506 -48.7573 -74.4561 -0.0002 -37.1397 -0.0001 0.5669 -2.4427 -5.3987 0 0 0 0 0 0 12.8761 -16.3442 1.6026 -13.4185 37.2178 77.6937 -0.0002 35.4957 0 -22.0809 0.5585 2.6426 0 0 0 0 0 0
0 25.4726 0 3.2505 -8.9164 -1.3285 -48.5982 -5.6295 7.7253 79.7721 0 0 -35.267 0.574 -11.6965 -6.5683 0 0 -47.9489 -1.6334 2.6636 78.412 0 0 -44.3746 -1.5373 -8.3075 8.3549 0 0 1.9823 2.0799 -1.2327 15.7844 -1.3117 -3.1807 1.9084 2.6139 -6.6713 2.6753 0.0406 5.3418 20.0943 8.8108 -4.4443 -37.7031 -47.2302 -75.7241 -0.0002 -37.5704 -0.0001 4.3783 -2.5812 3.4659 0 0 0 0 0 0 12.9111 -16.2765 1.5635 -9.0269 36.94 74.5421 -0.0001 26.6371 0 -21.1285 -0.6317 5.1439 0 0 0 0 0 0
0 27.1888 0 4.5354 -7.4368 -1.8919 -43.6561 -7.3823 6.5481 70.1548 0 0 -31.691 1.8584 -10.7535 -7.8889 0 0 -42.4206 -2.7321 2.3793 68.2012 0 0 -40.7765 -1.4314 -8.6775 8.5817 0 0 1.9685 1.8717 -1.0068 14.9907 -1.2643 -2.262 2.524 2.2058 -6.3616 2.8773 -0.7919 6.0035 19.439 8.2513 -3.6991 -36.093 -48.9981 -74.1793 -0.0002 -37.099 -0.0001 -0.714 -2.3398 -6.6253 0 0 0 0 0 0 12.7646 -16.2663 1.5797 -13.8921 37.3149 77.9835 -0.0002 37.4946 0.0001 -22.481 0.436 2.428 0 0 0 0 0 0
0 25.2251 0 3.2045 -9.2213 -1.2233 -49.4991 -5.3622 7.9827 81.0696 0 0 -35.5834 0.369 -11.7774 -6.1532 0 0 -48.9574 -1.445 2.789 79.7659 0 0 -44.6271 -1.5329 -8.5144 8.2634 0 0 1.889 2.1393 -1.2854 15.8601 -1.2886 -3.3127 1.8307 2.6289 -6.6728 2.574 0.1794 5.2508 20.2309 8.8847 -4.424 -38.0436 -46.7123 -76.1412 -0.0002 -37.603 -0.0001 4.4751 -2.5353 5.252 0 0 0 0 0 0 13.0452 -16.1829 1.5171 -8.3203 36.868 73.8274 -0.0001 24.7835 0 -21.167 -1.3151 6.1605 0 0 0 0 0 0
0 27.4933 0 4.6936 -7.2395 -1.9728 -42.656 -7.5919 6.4483 68.2635 0 0 -30.9169 2.0641 -10.6002 -7.9067 0 0 -41.3461 -2.8406 2.3786 66.2182 0 0 -39.9708 -1.4155 -8.492 8.5582 0 0 1.9701 1.8951 -0.9947 15.0047 -1.1959 -2.0904 2.4997 2.1702 -6.2496 2.9724 -0.9808 6.0299 19.3026 8.1438 -3.5495 -35.9534 -49.0851 -74.0939 -0.0002 -36.9844 -0.0001 -1.8378 -2.2997 -7.7731 0 0 0 0 0 0 12.6707 -16.2874 1.5424 -14.531 37.4442 78.3017 -0.0002 39.5124 0.0001 -22.6529 0.2721 2.2184 0 0 0 0 0 0
0 24.9903 0 3.2569 -9.4733 -1.128 -50.4776 -5.1736 8.1998 82.2614 0 0 -35.8371 0.1939 -11.7994 -5.799 0 0 -50.0225 -1.2884 2.9091 81.0029 0 0 -44.8006 -1.5621 -8.5663 8.1156 0 0 1.7436 2.1963 -1.3166 15.8883 -1.2551 -3.4107 1.754 2.5631 -6.6898 2.4319 0.2967 5.1975 20.237 8.9092 -4.3226 -38.1762 -46.2945 -76.4958 -0.0002 -37.6173 -0.0001 4.0713 -2.7089 7.0532 0 0 0 0 0 0 13.1038 -16.1224 1.389 -7.6151 36.5525 73.2103 -0.0001 22.9498 0 -21.5765 -1.9044 7.1431 0 0 0 0 0 0
0 27.7961 0 5.038 -7.0877 -1.9611 -41.8659 -7.7241 6.3186 66.326 0 0 -30.031 2.2323 -10.4227 -8.0812 0 0 -40.5223 -2.9046 2.3213 64.2403 0 0 -39.0722 -1.3833 -8.3352 8.6236 0 0 1.955 1.9291 -0.9642 14.7281 -1.1365 -2.0131 2.5678 2.0732 -6.1496 3.0689 -1.0588 6.0498 19.2317 8.054 -3.408 -35.6592 -49.2801 -73.897 -0.0002 -36.9029 -0.0001 -2.7573 -2.2692 -8.5266 0 0 0 0 0 0 12.492 -16.3113 1.3456 -15.1269 37.4626 78.8007 -0.0002 41.3792 0.0001 -22.7773 0.2448 2.3849 0 0 0 0 0 0
0 24.78 0 3.1751 -9.6051 -1.0984 -51.2639 -5.1603 8.3278 83.2765 0 0 -35.8553 0.0712 -12.2765 -7.4165 0 0 -50.8787 -1.193 3.0233 82.1008 0 0 -45.0148 -1.6108 -8.616 8.6954 0 0 1.8016 2.2444 -1.3341 15.7582 -1.1998 -3.444 1.7606 2.4235 -6.7334 2.3073 0.4265 5.1911 20.2387 8.7841 -4.2444 -38.1259 -45.6386 -76.8118 -0.0002 -37.7163 -0.0001 3.5285 -2.9403 8.9092 0 0 0 0 0 0 13.292 -16.0777 1.2957 -6.9353 35.9493 72.5984 -0.0001 21.2292 0 -22.2266 -2.4145 8.0402 0 0 0 0 0 0
0 24.614 0 2.9003 -9.6267 -1.1275 -51.7181 -5.1447 8.4381 84.081 0 0 -35.9536 -0.0588 -12.2999 -7.3317 0 0 -51.3918 -1.1069 3.128 82.9942 0 0 -45.1067 -1.6553 -8.7204 8.2879 0 0 1.8114 2.2472 -1.3272 16.0495 -1.2117 -3.4745 1.5778 2.5107 -6.7742 2.2719 0.3917 5.3074 20.3162 8.7044 -4.4676 -38.1492 -45.3947 -76.745 -0.0002 -37.8206 -0.0001 1.8324 -3.5882 10.4429 0 0 0 0 0 0 13.4768 -16.0868 1.419 -6.4265 35.6469 71.8001 -0.0001 19.3102 0 -23.4342 -2.5044 8.7688 0 0 0 0 0 0
